PathFileType	3	(X/Y/Z)	walking_1__view1_aligned.trc
DataRate	CameraRate	NumFrames	NumMarkers	Units	OrigDataRate	OrigDataStartFrame	OrigNumFrames
100.0	100.0	18	19	mm	100.0	1	6105
Frame#	Time	pelvis			neck			head			hip_left			hip_right			knee_left			knee_right			ankle_left			ankle_right			heel_left			heel_right			toe_left			toe_right			shoulder_left			shoulder_right			elbow_left			elbow_right			wrist_left			wrist_right			
		X1	Y1	Z1	X2	Y2	Z2	X3	Y3	Z3	X4	Y4	Z4	X5	Y5	Z5	X6	Y6	Z6	X7	Y7	Z7	X8	Y8	Z8	X9	Y9	Z9	X10	Y10	Z10	X11	Y11	Z11	X12	Y12	Z12	X13	Y13	Z13	X14	Y14	Z14	X15	Y15	Z15	X16	Y16	Z16	X17	Y17	Z17	X18	Y18	Z18	X19	Y19	Z19	
1	0.00000	20.758210	937.700884	241.898453	-29.871656	1489.142983	364.323568	-30.552051	1540.824121	522.347860	101.164802	936.275900	230.621868	-59.648420	939.125862	253.175066	111.113963	484.146276	248.414679	-91.856826	527.265293	463.645890	55.049022	216.668870	-121.920185	-105.490332	103.612295	476.712722	40.892442	214.876656	-183.504024	-109.226674	49.856625	449.135076	65.136535	7.203774	-71.593151	-84.207792	55.649121	672.944751	156.397340	1474.323901	337.244078	-195.604029	1418.236043	306.621361	271.700943	1191.228220	325.584981	-239.609687	1121.496208	245.082217	290.854128	952.565059	461.555345	-320.112241	846.297625	259.438788
2	0.01000	19.235215	937.668705	243.146340	-31.216103	1488.710844	365.413678	-31.649865	1540.753707	523.546985	99.629166	936.235839	232.427743	-61.158814	939.101559	253.864994	109.888744	486.543250	259.039513	-94.551270	525.565019	455.904909	56.630521	215.324927	-99.949128	-108.598352	102.281461	464.406625	43.107623	212.149374	-160.519257	-112.120419	48.747631	436.386676	65.390359	10.947347	-45.842902	-88.733905	53.525800	660.194111	155.074851	1473.893086	337.247505	-197.359923	1417.903263	308.659764	268.767802	1191.160654	322.176339	-242.097736	1121.415669	248.725620	288.108363	952.300202	456.074495	-318.993514	849.110871	268.657186
3	0.02000	17.712219	937.636526	244.394228	-32.560549	1488.278704	366.503788	-32.747680	1540.683292	524.746109	98.093531	936.195779	234.233618	-62.669208	939.077255	254.554922	108.663525	488.940223	269.664348	-97.245713	523.864745	448.163928	58.212019	213.980984	-77.978072	-111.706372	100.950627	452.100529	45.322803	209.422092	-137.534490	-115.014165	47.638636	423.638277	65.644183	14.690921	-20.092653	-93.260019	51.402478	647.443470	153.752362	1473.462271	337.250932	-199.115817	1417.570484	310.698168	265.834662	1191.093089	318.767697	-244.585784	1121.335130	252.369023	285.362597	952.035344	450.593645	-317.874788	851.924117	277.875584
4	0.03000	16.189224	937.604347	245.642115	-33.904996	1487.846565	367.593898	-33.845494	1540.612878	525.945234	96.557896	936.155719	236.039493	-64.179603	939.052952	255.244851	107.438306	491.337197	280.289182	-99.940157	522.164471	440.422947	59.793518	212.637041	-56.007015	-114.814391	99.619794	439.794433	47.537983	206.694811	-114.549723	-117.907910	46.529641	410.889877	65.898007	18.434495	5.657596	-97.786132	49.279157	634.692830	152.429872	1473.031457	337.254360	-200.871710	1417.237704	312.736571	262.901522	1191.025524	315.359054	-247.073832	1121.254591	256.012427	282.616832	951.770486	445.112794	-316.756061	854.737363	287.093982
5	0.04000	14.666228	937.572168	246.890003	-35.249442	1487.414426	368.684008	-34.943309	1540.542464	527.144359	95.022260	936.115658	237.845368	-65.689997	939.028648	255.934779	106.213087	493.734171	290.914016	-102.634600	520.464197	432.681967	61.375016	211.293098	-34.035959	-117.922411	98.288960	427.488337	49.753163	203.967529	-91.564956	-120.801656	45.420647	398.141478	66.151831	22.178069	31.407845	-102.312245	47.155835	621.942190	151.107383	1472.600642	337.257787	-202.627604	1416.904924	314.774974	259.968382	1190.957958	311.950412	-249.561881	1121.174052	259.655830	279.871066	951.505629	439.631944	-315.637335	857.550608	296.312379
6	0.05000	13.143233	937.539989	248.137890	-36.593889	1486.982287	369.774118	-36.041123	1540.472049	528.343483	93.486625	936.075598	239.651244	-67.200392	939.004345	256.624707	104.987868	496.131145	301.538851	-105.329043	518.763923	424.940986	62.956515	209.949155	-12.064902	-121.030431	96.958127	415.182241	51.968344	201.240247	-68.580189	-123.695402	44.311652	385.393078	66.405655	25.921642	57.158093	-106.838359	45.032514	609.191549	149.784894	1472.169827	337.261214	-204.383498	1416.572145	316.813377	257.035242	1190.890393	308.541770	-252.049929	1121.093513	263.299233	277.125301	951.240771	434.151094	-314.518608	860.363854	305.530777
7	0.06000	11.620237	937.507810	249.385778	-37.938335	1486.550147	370.864228	-37.138938	1540.401635	529.542608	91.950990	936.035538	241.457119	-68.710786	938.980042	257.314636	103.762649	498.528118	312.163685	-108.023487	517.063649	417.200005	64.538013	208.605212	9.906154	-124.138451	95.627293	402.876145	54.183524	198.512966	-45.595422	-126.589147	43.202658	372.644679	66.659478	29.665216	82.908342	-111.364472	42.909192	596.440909	148.462405	1471.739012	337.264642	-206.139391	1416.239365	318.851780	254.102102	1190.822827	305.133127	-254.537977	1121.012974	266.942636	274.379535	950.975913	428.670244	-313.399881	863.177100	314.749175
8	0.07000	10.097241	937.475632	250.633665	-39.282782	1486.118008	371.954338	-38.236752	1540.331220	530.741733	90.415355	935.995478	243.262994	-70.221181	938.955738	258.004564	102.537431	500.925092	322.788520	-110.717930	515.363375	409.459024	66.119512	207.261269	31.877210	-127.246470	94.296460	390.570049	56.398704	195.785684	-22.610655	-129.482893	42.093663	359.896279	66.913302	33.408790	108.658591	-115.890585	40.785871	583.690268	147.139915	1471.308197	337.268069	-207.895285	1415.906585	320.890184	251.168961	1190.755262	301.724485	-257.026025	1120.932435	270.586039	271.633770	950.711056	423.189394	-312.281155	865.990346	323.967573
9	0.08000	8.574246	937.443453	251.881553	-40.627229	1485.685869	373.044448	-39.334567	1540.260806	531.940858	88.879719	935.955417	245.068869	-71.731575	938.931435	258.694492	101.312212	503.322066	333.413354	-113.412374	513.663101	401.718043	67.701010	205.917327	53.848267	-130.354490	92.965626	378.263953	58.613884	193.058402	0.374112	-132.376638	40.984668	347.147879	67.167126	37.152364	134.408840	-120.416699	38.662549	570.939628	145.817426	1470.877382	337.271496	-209.651179	1415.573806	322.928587	248.235821	1190.687696	298.315842	-259.514074	1120.851896	274.229443	268.888004	950.446198	417.708544	-311.162428	868.803592	333.185971
10	0.09000	7.051250	937.411274	253.129440	-41.971675	1485.253730	374.134558	-40.432381	1540.190391	533.139982	87.344084	935.915357	246.874744	-73.241970	938.907131	259.384421	100.086993	505.719040	344.038188	-116.106817	511.962827	393.977063	69.282509	204.573384	75.819323	-133.462510	91.634793	365.957857	60.829065	190.331121	23.358879	-135.270384	39.875674	334.399480	67.420950	40.895937	160.159089	-124.942812	36.539228	558.188987	144.494937	1470.446567	337.274924	-211.407072	1415.241026	324.966990	245.302681	1190.620131	294.907200	-262.002122	1120.771357	277.872846	266.142239	950.181340	412.227693	-310.043702	871.616837	342.404369
11	0.10000	6.360127	937.398093	253.934261	-42.490910	1484.956496	374.764424	-40.774315	1540.217305	533.835523	86.630845	935.923372	248.140572	-73.910939	938.872760	259.728205	99.408281	507.507480	351.824376	-117.740776	510.802310	388.312053	70.725513	203.135009	92.967487	-135.272265	91.367578	355.785633	62.774114	187.716862	41.341819	-136.882227	39.959762	323.799441	67.799819	43.713285	180.540364	-127.827245	35.188255	547.177357	143.992531	1470.080130	337.131267	-212.250808	1415.048625	326.276814	243.493684	1190.494064	292.239947	-263.375213	1120.782914	280.391918	264.470612	949.864259	407.780971	-308.676752	873.919554	349.370849
12	0.11000	5.669004	937.384912	254.739081	-43.010144	1484.659262	375.394291	-41.116248	1540.244218	534.531063	85.917607	935.931387	249.406401	-74.579908	938.838389	260.071989	98.729569	509.295921	359.610564	-119.374736	509.641793	382.647043	72.168518	201.696633	110.115650	-137.082021	91.100364	345.613408	64.719163	185.102604	59.324760	-138.494070	40.043850	313.199403	68.178688	46.530632	200.921640	-130.711679	33.837281	536.165728	143.490125	1469.713692	336.987609	-213.094544	1414.856224	327.586637	241.684686	1190.367998	289.572694	-264.748305	1120.794471	282.910989	262.798986	949.547178	403.334249	-307.309802	876.222270	356.337329
13	0.12000	4.977881	937.371731	255.543902	-43.529379	1484.362029	376.024158	-41.458182	1540.271132	535.226604	85.204368	935.939402	250.672229	-75.248877	938.804018	260.415774	98.050857	511.084361	367.396752	-121.008695	508.481276	376.982033	73.611522	200.258258	127.263813	-138.891776	90.833150	335.441184	66.664212	182.488345	77.307700	-140.105913	40.127939	302.599364	68.557558	49.347979	221.302915	-133.596112	32.486308	525.154098	142.987720	1469.347254	336.843952	-213.938280	1414.663823	328.896461	239.875689	1190.241931	286.905442	-266.121396	1120.806028	285.430061	261.127359	949.230097	398.887528	-305.942851	878.524986	363.303809
14	0.13000	4.286758	937.358550	256.348723	-44.048614	1484.064795	376.654024	-41.800115	1540.298046	535.922144	84.491130	935.947417	251.938058	-75.917846	938.769647	260.759558	97.372145	512.872802	375.182940	-122.642655	507.320759	371.317023	75.054526	198.819883	144.411976	-140.701532	90.565936	325.268960	68.609261	179.874086	95.290640	-141.717756	40.212027	291.999326	68.936427	52.165326	241.684191	-136.480546	31.135335	514.142468	142.485314	1468.980816	336.700295	-214.782016	1414.471422	330.206285	238.066691	1190.115864	284.238189	-267.494487	1120.817585	287.949133	259.455732	948.913016	394.440806	-304.575901	880.827702	370.270289
15	0.14000	3.595635	937.345369	257.153543	-44.567848	1483.767561	377.283891	-42.142049	1540.324959	536.617685	83.777891	935.955432	253.203886	-76.586815	938.735276	261.103342	96.693433	514.661242	382.969128	-124.276614	506.160242	365.652013	76.497531	197.381508	161.560140	-142.511287	90.298722	315.096736	70.554310	177.259828	113.273581	-143.329599	40.296115	281.399287	69.315296	54.982673	262.065467	-139.364979	29.784362	503.130838	141.982908	1468.614378	336.556638	-215.625752	1414.279021	331.516108	236.257694	1189.989798	281.570936	-268.867579	1120.829142	290.468205	257.784106	948.595935	389.994084	-303.208951	883.130418	377.236769
16	0.15000	2.904512	937.332188	257.958364	-45.087083	1483.470328	377.913758	-42.483983	1540.351873	537.313226	83.064653	935.963447	254.469715	-77.255783	938.700905	261.447127	96.014721	516.449683	390.755316	-125.910573	504.999725	359.987003	77.940535	195.943133	178.708303	-144.321042	90.031507	304.924512	72.499359	174.645569	131.256521	-144.941442	40.380203	270.799249	69.694165	57.800020	282.446742	-142.249413	28.433388	492.119208	141.480503	1468.247940	336.412981	-216.469488	1414.086620	332.825932	234.448696	1189.863731	278.903683	-270.240670	1120.840698	292.987277	256.112479	948.278854	385.547362	-301.842001	885.433135	384.203249
17	0.16000	2.213389	937.319007	258.763185	-45.606318	1483.173094	378.543624	-42.825916	1540.378786	538.008766	82.351414	935.971462	255.735543	-77.924752	938.666534	261.790911	95.336009	518.238123	398.541504	-127.544533	503.839208	354.321993	79.383539	194.504758	195.856466	-146.130798	89.764293	294.752287	74.444408	172.031311	149.239461	-146.553284	40.464292	260.199210	70.073035	60.617367	302.828018	-145.133847	27.082415	481.107579	140.978097	1467.881503	336.269324	-217.313224	1413.894219	334.135755	232.639698	1189.737664	276.236430	-271.613761	1120.852255	295.506348	254.440853	947.961773	381.100640	-300.475051	887.735851	391.169730
18	0.17000	1.522266	937.305826	259.568005	-46.125552	1482.875860	379.173491	-43.167850	1540.405700	538.704307	81.638176	935.979477	257.001372	-78.593721	938.632163	262.134696	94.657297	520.026564	406.327691	-129.178492	502.678691	348.656983	80.826544	193.066383	213.004629	-147.940553	89.497079	284.580063	76.389457	169.417052	167.222402	-148.165127	40.548380	249.599172	70.451904	63.434715	323.209293	-148.018280	25.731442	470.095949	140.475692	1467.515065	336.125667	-218.156960	1413.701818	335.445579	230.830701	1189.611598	273.569177	-272.986852	1120.863812	298.025420	252.769226	947.644693	376.653918	-299.108101	890.038567	398.136210
